<svg xmlns="http://www.w3.org/2000/svg" viewBox="0 0 260 260">
  <g>
  	<g>

  			<rect x="150.161" y="45.878" transform="matrix(-0.8773 0.48 -0.48 -0.8773 339.61 39.3002)" fill="#F5F5F7" width="29.239" height="34.373"/>

  			<rect x="152.598" y="48.743" transform="matrix(-0.8773 0.48 -0.48 -0.8773 339.61 39.3002)" fill="#E6E6E6" width="24.366" height="28.645"/>
  	</g>
  	<g>
  		<polygon fill="#D6D8DE" points="157.911,71.276 159.854,70.213 161.798,69.149 160.548,66.865 155.548,57.727 153.605,58.79
  			158.604,67.928 156.661,68.991 150.412,57.569 158.185,53.316 156.935,51.032 149.162,55.284 147.219,56.348 148.469,58.632
  			154.718,70.055 155.968,72.339 159.717,79.192 160.967,81.477 162.911,80.414 170.684,76.161 169.434,73.877 161.661,78.129 		"/>
  		<polygon fill="#D6D8DE" points="166.651,45.716 164.708,46.779 162.765,47.842 158.878,49.968 160.128,52.253 164.015,50.127
  			169.014,59.265 170.957,58.201 165.958,49.063 167.901,48 174.151,59.423 168.321,62.612 165.821,58.043 163.878,59.106
  			166.378,63.675 167.627,65.96 169.571,64.897 175.4,61.707 179.15,68.561 173.32,71.75 172.07,69.466 175.957,67.339
  			174.707,65.055 170.821,67.181 168.877,68.244 166.934,69.308 160.685,57.885 164.571,55.759 163.321,53.474 159.435,55.601
  			157.492,56.664 158.741,58.948 164.991,70.371 161.104,72.497 162.354,74.782 166.241,72.655 168.184,71.592 170.127,70.529
  			171.377,72.813 172.627,75.098 174.57,74.035 180.4,70.845 182.343,69.782 181.093,67.497 177.344,60.644 176.094,58.36
  			169.845,46.937 168.595,44.653 		"/>
  	</g>
  	<g>
  		<rect x="77.591" y="76.373" fill="#F5F5F7" width="32.092" height="39.755"/>
  		<rect x="80.266" y="79.686" fill="#E6E6E6" width="26.743" height="33.13"/>
  	</g>
  	<g>

  			<rect x="67.757" y="66.839" transform="matrix(-0.8155 -0.5788 0.5788 -0.8155 96.9839 207.9324)" fill="#F5F5F7" width="27.763" height="43.333"/>

  			<rect x="70.071" y="70.45" transform="matrix(-0.8155 -0.5788 0.5788 -0.8155 96.9839 207.9324)" fill="#E6E6E6" width="23.136" height="36.111"/>
  	</g>
  	<g>
  		<polygon fill="#F5F5F7" points="56.062,124.218 86.035,133.58 86.035,96.865 56.062,87.503 		"/>
  		<polygon fill="#E6E6E6" points="58.56,121.939 83.537,129.741 83.537,99.144 58.56,91.342 		"/>
  	</g>
  	<g>

  			<rect x="214.861" y="202.083" transform="matrix(-1 -4.488733e-11 4.488733e-11 -1 462.2222 442.0831)" fill="#F5F5F7" width="32.5" height="37.917"/>

  			<rect x="217.569" y="205.243" transform="matrix(-1 -4.506629e-11 4.506629e-11 -1 462.2222 442.0831)" fill="#E6E6E6" width="27.083" height="31.597"/>
  	</g>
  	<g>

  			<rect x="174.056" y="198.399" transform="matrix(-0.9628 -0.2701 0.2701 -0.9628 314.8258 478.0386)" fill="#F5F5F7" width="32.5" height="37.917"/>

  			<rect x="176.764" y="201.558" transform="matrix(-0.9628 -0.2701 0.2701 -0.9628 314.8258 478.0386)" fill="#E6E6E6" width="27.083" height="31.597"/>
  	</g>
  	<g>

  			<rect x="209.786" y="172.833" transform="matrix(-0.8798 0.4754 -0.4754 -0.8798 512.6442 259.3578)" fill="#F5F5F7" width="27.484" height="43.333"/>

  			<rect x="212.076" y="176.444" transform="matrix(-0.8798 0.4754 -0.4754 -0.8798 512.6442 259.3578)" fill="#E6E6E6" width="22.903" height="36.111"/>
  	</g>
  	<path fill="none" d="M260,240c0,0-61.028-205.472-130-205.472C62.111,34.528,0,240,0,240H260z"/>
  	<g>

  			<rect x="196.888" y="114.668" transform="matrix(-0.8874 0.461 -0.461 -0.8874 454.2957 158.7491)" fill="#F5F5F7" width="21.745" height="40.375"/>

  			<rect x="198.7" y="118.033" transform="matrix(-0.8874 0.461 -0.461 -0.8874 454.2957 158.7491)" fill="#E6E6E6" width="18.121" height="33.646"/>
  	</g>
  	<g>

  			<rect x="185.728" y="87.405" transform="matrix(-0.8297 0.5582 -0.5582 -0.8297 420.7395 89.7992)" fill="#F5F5F7" width="21.891" height="43.333"/>

  			<rect x="187.552" y="91.016" transform="matrix(-0.8297 0.5582 -0.5582 -0.8297 420.7395 89.7992)" fill="#E6E6E6" width="18.243" height="36.111"/>
  	</g>
  	<g>

  			<rect x="171.045" y="65.547" transform="matrix(-0.8321 0.5547 -0.5547 -0.8321 386.4177 54.2241)" fill="#F5F5F7" width="27.91" height="40.128"/>

  			<rect x="173.371" y="68.891" transform="matrix(-0.8321 0.5547 -0.5547 -0.8321 386.4177 54.2241)" fill="#E6E6E6" width="23.258" height="33.44"/>
  	</g>
  	<g>

  			<rect x="136.338" y="77.057" transform="matrix(-0.7977 -0.603 0.603 -0.7977 227.0407 265.2417)" fill="#F5F5F7" width="43.333" height="34.972"/>

  			<rect x="139.949" y="79.971" transform="matrix(-0.7977 -0.603 0.603 -0.7977 227.0407 265.2417)" fill="#E6E6E6" width="36.111" height="29.144"/>
  	</g>
  	<g>

  			<rect x="137.447" y="33.823" transform="matrix(-0.839 0.5441 -0.5441 -0.839 306.4039 11.7985)" fill="#F5F5F7" width="28.018" height="34.813"/>

  			<rect x="139.782" y="36.724" transform="matrix(-0.839 0.5441 -0.5441 -0.839 306.4039 11.7985)" fill="#E6E6E6" width="23.348" height="29.011"/>
  	</g>
  	<g>

  			<rect x="180.08" y="116.103" transform="matrix(-0.9834 0.1813 -0.1813 -0.9834 411.8711 236.4742)" fill="#F5F5F7" width="30.098" height="41.913"/>

  			<rect x="182.588" y="119.596" transform="matrix(-0.9834 0.1813 -0.1813 -0.9834 411.8711 236.4742)" fill="#E6E6E6" width="25.082" height="34.927"/>
  	</g>
  	<g>

  			<rect x="149.496" y="99.15" transform="matrix(-0.9665 -0.2567 0.2567 -0.9665 301.0483 278.7481)" fill="#F5F5F7" width="38.447" height="41.147"/>

  			<rect x="152.7" y="102.579" transform="matrix(-0.9665 -0.2567 0.2567 -0.9665 301.0483 278.7481)" fill="#E6E6E6" width="32.039" height="34.289"/>
  	</g>
  	<g>

  			<rect x="44.431" y="101.369" transform="matrix(-0.9144 -0.4048 0.4048 -0.9144 46.568 255.9181)" fill="#F5F5F7" width="11.825" height="43.333"/>

  			<rect x="45.416" y="104.98" transform="matrix(-0.9144 -0.4048 0.4048 -0.9144 46.568 255.9181)" fill="#E6E6E6" width="9.854" height="36.111"/>
  	</g>
  	<g>

  			<rect x="99.719" y="36.717" transform="matrix(-0.9431 -0.3324 0.3324 -0.9431 213.5571 140.2022)" fill="#F5F5F7" width="38.105" height="30.232"/>

  			<rect x="102.895" y="39.236" transform="matrix(-0.9431 -0.3324 0.3324 -0.9431 213.5571 140.2022)" fill="#E6E6E6" width="31.754" height="25.194"/>
  	</g>
  	<g>

  			<rect x="86.135" y="58.38" transform="matrix(-0.8777 -0.4793 0.4793 -0.8777 154.3523 191.7677)" fill="#F5F5F7" width="31.029" height="35.61"/>

  			<rect x="88.721" y="61.348" transform="matrix(-0.8777 -0.4793 0.4793 -0.8777 154.3523 191.7677)" fill="#E6E6E6" width="25.858" height="29.675"/>
  	</g>
  	<g>

  			<rect x="117.181" y="54.793" transform="matrix(-0.9792 0.2031 -0.2031 -0.9792 288.4304 118.4083)" fill="#F5F5F7" width="41.919" height="38.415"/>

  			<rect x="120.675" y="57.994" transform="matrix(-0.9792 0.2031 -0.2031 -0.9792 288.4304 118.4083)" fill="#E6E6E6" width="34.932" height="32.013"/>
  	</g>
  	<g>

  			<rect x="99.215" y="73.875" transform="matrix(-0.9949 -0.1011 0.1011 -0.9949 231.5797 201.0183)" fill="#F5F5F7" width="43.333" height="41.537"/>

  			<rect x="102.826" y="77.336" transform="matrix(-0.9949 -0.1011 0.1011 -0.9949 231.5797 201.0183)" fill="#E6E6E6" width="36.111" height="34.614"/>
  	</g>
  	<g>

  			<rect x="211.873" y="139.44" transform="matrix(-0.9651 0.262 -0.262 -0.9651 478.9612 257.0222)" fill="#F5F5F7" width="20.944" height="42.006"/>

  			<rect x="213.618" y="142.94" transform="matrix(-0.9651 0.262 -0.262 -0.9651 478.9612 257.0222)" fill="#E6E6E6" width="17.454" height="35.005"/>
  	</g>
  	<g>

  			<rect x="81.994" y="99.585" transform="matrix(-0.9936 0.113 -0.113 -0.9936 216.0634 230.2597)" fill="#F5F5F7" width="39.028" height="43.333"/>

  			<rect x="85.247" y="103.196" transform="matrix(-0.9936 0.113 -0.113 -0.9936 216.0634 230.2597)" fill="#E6E6E6" width="32.523" height="36.111"/>
  	</g>
  	<g>

  			<rect x="114.869" y="102.299" transform="matrix(-0.9877 0.1564 -0.1564 -0.9877 290.7834 225.0454)" fill="#F5F5F7" width="43.333" height="43.333"/>

  			<rect x="118.48" y="105.91" transform="matrix(-0.9877 0.1564 -0.1564 -0.9877 290.7834 225.0454)" fill="#E6E6E6" width="36.111" height="36.111"/>
  	</g>
  	<g>

  			<rect x="143.92" y="122.581" transform="matrix(-0.7979 0.6028 -0.6028 -0.7979 378.3623 161.6451)" fill="#F5F5F7" width="36.329" height="43.333"/>

  			<rect x="146.947" y="126.193" transform="matrix(-0.7979 0.6028 -0.6028 -0.7979 378.3623 161.6451)" fill="#E6E6E6" width="30.274" height="36.111"/>
  	</g>
  	<g>

  			<rect x="32.243" y="116.987" transform="matrix(-0.9144 -0.4048 0.4048 -0.9144 16.9137 280.8833)" fill="#F5F5F7" width="11.825" height="43.333"/>

  			<rect x="33.229" y="120.598" transform="matrix(-0.9144 -0.4048 0.4048 -0.9144 16.9137 280.8833)" fill="#E6E6E6" width="9.854" height="36.111"/>
  	</g>
  	<g>

  			<rect x="23.85" y="130.536" transform="matrix(-0.9478 -0.3188 0.3188 -0.9478 14.3311 306.7505)" fill="#F5F5F7" width="16.842" height="43.333"/>

  			<rect x="25.254" y="134.147" transform="matrix(-0.9478 -0.3188 0.3188 -0.9478 14.3311 306.7505)" fill="#E6E6E6" width="14.035" height="36.111"/>
  	</g>
  	<g>

  			<rect x="42.983" y="120.492" transform="matrix(-0.9623 -0.2721 0.2721 -0.9623 73.8112 294.5517)" fill="#F5F5F7" width="28.688" height="43.333"/>

  			<rect x="45.373" y="124.103" transform="matrix(-0.9623 -0.2721 0.2721 -0.9623 73.8112 294.5517)" fill="#E6E6E6" width="23.907" height="36.111"/>
  	</g>
  	<g>

  			<rect x="41.167" y="187.829" transform="matrix(-0.6372 0.7707 -0.7707 -0.6372 264.3326 294.5512)" fill="#F5F5F7" width="43.333" height="43.333"/>

  			<rect x="44.778" y="191.44" transform="matrix(-0.6372 0.7707 -0.7707 -0.6372 264.3326 294.5512)" fill="#E6E6E6" width="36.111" height="36.111"/>
  	</g>
  	<g>

  			<rect x="40.063" y="164.681" transform="matrix(-0.9738 -0.2275 0.2275 -0.9738 72.8147 381.0883)" fill="#F5F5F7" width="36.618" height="43.333"/>

  			<rect x="43.115" y="168.292" transform="matrix(-0.9738 -0.2275 0.2275 -0.9738 72.8147 381.0883)" fill="#E6E6E6" width="30.515" height="36.111"/>
  	</g>
  	<g>

  			<rect x="18.236" y="200.154" transform="matrix(-1 -4.489488e-11 4.489488e-11 -1 73.6661 440.1535)" fill="#F5F5F7" width="37.194" height="39.846"/>

  			<rect x="21.335" y="203.474" transform="matrix(-1 -4.483626e-11 4.483626e-11 -1 73.6661 440.1535)" fill="#E6E6E6" width="30.995" height="33.205"/>
  	</g>
  	<g>
  		<polygon fill="#F5F5F7" points="39.629,190.271 71.699,189.197 58.495,153.613 26.425,154.688 		"/>
  		<polygon fill="#E6E6E6" points="41.202,187.216 67.926,186.321 56.923,156.668 30.198,157.563 		"/>
  	</g>
  	<g>

  			<rect x="169.386" y="146.881" transform="matrix(-0.9282 0.372 -0.372 -0.9282 422.8186 255.5259)" fill="#F5F5F7" width="34.75" height="43.333"/>

  			<rect x="172.282" y="150.493" transform="matrix(-0.9282 0.372 -0.372 -0.9282 422.8186 255.5259)" fill="#E6E6E6" width="28.958" height="36.111"/>
  	</g>
  	<g>

  			<rect x="61.018" y="139.547" transform="matrix(-0.9546 -0.298 0.298 -0.9546 107.295 338.7865)" fill="#F5F5F7" width="36.913" height="43.333"/>

  			<rect x="64.094" y="143.158" transform="matrix(-0.9546 -0.298 0.298 -0.9546 107.295 338.7865)" fill="#E6E6E6" width="30.761" height="36.111"/>
  	</g>
  	<g>

  			<rect x="84.464" y="153.246" transform="matrix(-0.9544 0.2984 -0.2984 -0.9544 258.2737 310.3919)" fill="#F5F5F7" width="41.955" height="43.333"/>

  			<rect x="87.96" y="156.857" transform="matrix(-0.9544 0.2984 -0.2984 -0.9544 258.2737 310.3919)" fill="#E6E6E6" width="34.962" height="36.111"/>
  	</g>
  	<g>

  			<rect x="94.144" y="119.688" transform="matrix(0.8272 0.5619 -0.5619 0.8272 99.4282 -40.6477)" fill="#F5F5F7" width="43.333" height="43.333"/>

  			<rect x="97.755" y="123.299" transform="matrix(0.8272 0.5619 -0.5619 0.8272 99.4282 -40.6477)" fill="#E6E6E6" width="36.111" height="36.111"/>
  	</g>
  	<g>
  		<polygon fill="#D6D8DE" points="100.862,137.155 111.88,144.638 113.724,141.922 102.707,134.439 111.929,120.861
  			122.947,128.344 124.791,125.628 113.773,118.145 111.019,116.274 109.175,118.99 99.952,132.568 98.108,135.284 92.574,143.431
  			90.73,146.147 93.484,148.017 104.502,155.501 106.347,152.785 95.329,145.302 		"/>
  		<polygon fill="#D6D8DE" points="138.564,134.982 130.3,129.37 127.546,127.499 125.701,130.215 120.168,138.362 111.905,132.749
  			113.749,130.034 119.258,133.775 121.102,131.06 115.593,127.318 112.839,125.447 110.995,128.163 109.15,130.878
  			107.306,133.594 110.06,135.465 118.323,141.077 121.078,142.948 126.587,146.69 128.431,143.974 122.922,140.232
  			128.456,132.085 136.719,137.698 134.875,140.414 129.366,136.672 127.521,139.388 133.03,143.129 120.119,162.139
  			111.856,156.527 113.7,153.811 115.544,151.095 117.389,148.38 120.143,150.25 116.454,155.682 119.209,157.553 122.898,152.121
  			124.742,149.405 121.988,147.535 119.233,145.664 116.479,143.793 114.634,146.509 112.79,149.224 101.772,141.741
  			99.928,144.457 110.946,151.94 109.101,154.656 107.257,157.371 110.011,159.242 118.274,164.855 121.029,166.725 122.873,164.01
  			135.785,145 137.629,142.284 139.474,139.569 141.318,136.853 		"/>
  	</g>
  	<g>

  			<rect x="120.233" y="133.851" transform="matrix(-0.9877 -0.1564 0.1564 -0.9877 257.7236 331.3182)" fill="#F5F5F7" width="43.333" height="43.333"/>

  			<rect x="123.844" y="137.462" transform="matrix(-0.9877 -0.1564 0.1564 -0.9877 257.7236 331.3182)" fill="#E6E6E6" width="36.111" height="36.111"/>
  	</g>
  	<g>

  			<rect x="111.439" y="163.146" transform="matrix(-1 -4.499924e-11 4.499924e-11 -1 266.2109 369.625)" fill="#F5F5F7" width="43.333" height="43.333"/>

  			<rect x="115.05" y="166.757" transform="matrix(-1 -4.513335e-11 4.513335e-11 -1 266.2109 369.625)" fill="#E6E6E6" width="36.111" height="36.111"/>
  	</g>
  	<g>
  		<polygon fill="#D6D8DE" points="141.313,196.302 144.595,196.302 144.595,193.02 144.595,189.737 144.595,186.454
  			141.313,186.454 138.03,186.454 138.03,176.605 144.595,176.605 144.595,173.323 138.03,173.323 134.747,173.323 131.464,173.323
  			128.181,173.323 128.181,176.605 128.181,183.171 131.464,183.171 131.464,176.605 134.747,176.605 134.747,186.454
  			124.898,186.454 124.898,173.323 121.616,173.323 121.616,186.454 121.616,189.737 121.616,196.302 124.898,196.302
  			124.898,189.737 134.747,189.737 138.03,189.737 141.313,189.737 141.313,193.02 131.464,193.02 128.181,193.02 128.181,196.302
  			128.181,199.585 118.333,199.585 118.333,170.04 131.464,170.04 131.464,166.757 118.333,166.757 115.05,166.757 115.05,170.04
  			115.05,199.585 115.05,202.868 118.333,202.868 128.181,202.868 131.464,202.868 131.464,199.585 131.464,196.302 		"/>
  		<polygon fill="#D6D8DE" points="147.878,166.757 134.747,166.757 134.747,170.04 147.878,170.04 147.878,179.888 141.313,179.888
  			141.313,183.171 147.878,183.171 147.878,199.585 134.747,199.585 134.747,202.868 147.878,202.868 151.161,202.868
  			151.161,199.585 151.161,183.171 151.161,179.888 151.161,170.04 151.161,166.757 		"/>
  	</g>
  	<g>

  			<rect x="226.913" y="168.314" transform="matrix(0.9545 -0.2982 0.2982 0.9545 -45.7561 80.0736)" fill="#F5F5F7" width="25.226" height="43.333"/>

  			<rect x="229.015" y="171.925" transform="matrix(0.9545 -0.2982 0.2982 0.9545 -45.7561 80.0736)" fill="#E6E6E6" width="21.022" height="36.111"/>
  	</g>
  	<g>

  			<rect x="87.981" y="193.517" transform="matrix(-0.9227 -0.3855 0.3855 -0.9227 128.5748 452.476)" fill="#F5F5F7" width="43.333" height="39.664"/>

  			<rect x="91.593" y="196.822" transform="matrix(-0.9227 -0.3855 0.3855 -0.9227 128.5748 452.476)" fill="#E6E6E6" width="36.111" height="33.053"/>
  	</g>
  	<g>

  			<rect x="193.601" y="151.348" transform="matrix(-0.9349 0.3548 -0.3548 -0.9349 466.8641 260.4279)" fill="#F5F5F7" width="31.912" height="43.333"/>

  			<rect x="196.26" y="154.959" transform="matrix(-0.9349 0.3548 -0.3548 -0.9349 466.8641 260.4279)" fill="#E6E6E6" width="26.593" height="36.111"/>
  	</g>
  	<g>

  			<rect x="55.742" y="173.947" transform="matrix(-0.8849 -0.4657 0.4657 -0.8849 52.0088 404.0783)" fill="#F5F5F7" width="40.366" height="43.333"/>

  			<rect x="59.106" y="177.558" transform="matrix(-0.8849 -0.4657 0.4657 -0.8849 52.0088 404.0783)" fill="#E6E6E6" width="33.638" height="36.111"/>
  	</g>
  	<g>

  			<rect x="82.125" y="42.579" transform="matrix(-0.7357 -0.6773 0.6773 -0.7357 118.3514 167.9238)" fill="#F5F5F7" width="19.624" height="36.587"/>

  			<rect x="83.76" y="45.627" transform="matrix(-0.7357 -0.6773 0.6773 -0.7357 118.3514 167.9238)" fill="#E6E6E6" width="16.353" height="30.489"/>
  	</g>
  	<g>
  		<g>

  				<rect x="221.119" y="196.192" transform="matrix(-0.8785 0.4777 -0.4777 -0.8785 547.9822 291.6302)" fill="#F5F5F7" width="31.576" height="38.611"/>

  				<rect x="223.75" y="199.409" transform="matrix(-0.8785 0.4777 -0.4777 -0.8785 547.9822 291.6302)" fill="#E6E6E6" width="26.314" height="32.176"/>
  		</g>
  		<g>
  			<polygon fill="#D6D8DE" points="223.957,214.216 228.16,211.93 226.762,209.361 222.559,211.646 221.162,209.077
  				229.568,204.505 228.17,201.936 219.764,206.507 217.663,207.65 219.06,210.219 220.458,212.789 221.855,215.359
  				231.637,233.346 233.035,235.916 235.136,234.773 243.542,230.202 242.145,227.632 233.739,232.204 			"/>
  			<polygon fill="#D6D8DE" points="238.678,196.221 232.373,199.65 230.272,200.793 231.669,203.362 235.862,211.071
  				237.259,213.641 238.656,216.211 234.453,218.496 235.851,221.066 240.054,218.78 242.155,217.638 240.758,215.068
  				239.361,212.498 241.462,211.355 247.052,221.634 249.153,220.491 243.564,210.213 242.166,207.643 240.065,208.786
  				237.963,209.929 233.771,202.22 240.075,198.791 241.473,201.361 237.27,203.646 238.667,206.216 242.87,203.93 252.652,221.918
  				246.348,225.347 244.95,222.777 243.553,220.207 241.451,221.35 235.147,224.779 230.954,217.07 233.056,215.927
  				235.158,214.784 233.76,212.214 230.965,207.075 228.864,208.218 231.659,213.357 229.557,214.5 227.456,215.643
  				228.853,218.212 233.045,225.921 234.443,228.491 236.544,227.348 242.849,223.92 244.246,226.489 245.644,229.059
  				247.745,227.916 254.05,224.488 256.151,223.345 254.754,220.775 244.972,202.787 243.574,200.218 242.177,197.648
  				240.779,195.078 			"/>
  		</g>
  	</g>
  	<g>

  			<rect x="190.547" y="189.86" transform="matrix(-0.8436 0.537 -0.537 -0.8436 499.8818 277.4399)" fill="#F5F5F7" width="37.97" height="43.333"/>

  			<rect x="193.711" y="193.472" transform="matrix(-0.8436 0.537 -0.537 -0.8436 499.8818 277.4399)" fill="#E6E6E6" width="31.642" height="36.111"/>
  	</g>
  	<g>
  		<polyline fill="#D6D8DE" points="232.162,187.611 219.799,192.302 224.775,200.119 237.183,219.609 225.289,227.181
  			214.861,233.819 205.152,240 232.26,240 247.361,240 247.361,231.788 260,224.914 251.315,208.944 258.026,206.9 245.104,165.539
  			235.472,168.548 226.948,137.43 222.041,138.762 214.195,123.397 217.849,120.94 202.47,98.078 207.741,94.565 185.481,61.176
  			181.767,63.652 169.357,40.97 163.558,44.143 158.562,36.441 134.852,41.473 136.536,42.017 141.765,43.91 138.068,54.399
  			154.763,50.937 162.564,88.552 142.863,92.637 141.899,101.179 154.276,99.219 155.422,94.904 192.58,104.775 182.664,141.355
  			185.849,145.572 194.829,141.973 199.51,153.653 216.788,147.097 232.162,187.611 		"/>
  	</g>
  	<g>

  			<rect x="114.869" y="23.892" transform="matrix(-0.9782 0.2076 -0.2076 -0.9782 276.8256 35.7643)" fill="#F5F5F7" width="43.333" height="17.034"/>

  			<rect x="118.48" y="25.311" transform="matrix(-0.9782 0.2076 -0.2076 -0.9782 276.8256 35.7643)" fill="#E6E6E6" width="36.111" height="14.195"/>
  	</g>
  	<g>

  			<rect x="64.028" y="106.554" transform="matrix(-0.9133 -0.4074 0.4074 -0.9133 96.6619 277.0229)" fill="#F5F5F7" width="27.59" height="43.333"/>

  			<rect x="66.328" y="110.165" transform="matrix(-0.9133 -0.4074 0.4074 -0.9133 96.6619 277.0229)" fill="#E6E6E6" width="22.992" height="36.111"/>
  	</g>
  	<g>
  		<polygon fill="#D6D8DE" points="69.701,133.533 67.795,132.679 65.112,138.665 63.205,137.811 67.23,128.831 72.95,131.394
  			74.856,132.249 80.576,134.812 77.892,140.799 79.799,141.653 82.482,135.667 83.824,132.673 81.917,131.819 76.198,129.255
  			77.539,126.262 81.352,127.971 82.694,124.978 78.881,123.269 76.974,122.414 75.633,125.408 74.291,128.401 68.572,125.837
  			75.28,110.871 82.906,114.289 84.248,111.295 76.622,107.877 74.715,107.023 73.373,110.016 66.665,124.983 65.324,127.976
  			61.299,136.956 59.957,139.95 61.864,140.804 63.77,141.659 65.677,142.513 69.49,144.222 70.831,141.229 67.018,139.52 		"/>
  		<polygon fill="#D6D8DE" points="93.78,115.568 86.154,112.15 84.812,115.143 92.438,118.561 88.413,127.541 86.507,126.687
  			87.849,123.693 89.19,120.7 87.284,119.846 77.751,115.573 75.845,114.718 74.503,117.712 71.82,123.699 73.726,124.553
  			76.41,118.566 85.942,122.839 84.6,125.832 83.259,128.826 85.165,129.68 87.072,130.535 80.364,145.501 74.644,142.938
  			75.986,139.944 77.327,136.951 75.421,136.097 71.608,134.388 70.266,137.381 74.079,139.09 72.738,142.083 71.396,145.077
  			73.303,145.931 79.022,148.495 80.929,149.349 82.27,146.356 88.978,131.389 90.32,128.396 94.345,119.416 95.687,116.422 		"/>
  	</g>
  	<g>
  		<polygon fill="#D6D8DE" points="87.953,55.321 89.047,56.328 90.141,57.335 91.235,58.342 89.358,60.381 87.48,62.421
  			88.574,63.428 89.668,64.434 90.762,65.441 92.639,63.402 100.148,55.245 99.054,54.238 91.545,62.395 90.451,61.388
  			92.329,59.349 94.206,57.31 93.112,56.303 92.018,55.296 95.773,51.217 94.679,50.211 90.924,54.289 89.831,53.282 95.462,47.164
  			98.744,50.185 94.989,54.264 96.083,55.27 99.838,51.192 101.715,49.153 100.621,48.146 97.34,45.125 96.246,44.118
  			94.369,46.157 88.737,52.275 86.86,54.315 77.473,64.511 75.596,66.55 76.69,67.557 81.065,71.585 82.942,69.545 78.567,65.518
  			"/>
  		<polygon fill="#D6D8DE" points="107.184,54.187 102.809,50.159 100.931,52.199 105.307,56.226 103.429,58.266 101.242,56.252
  			99.364,58.291 101.552,60.305 88.411,74.58 85.13,71.559 87.007,69.52 88.101,70.527 89.195,71.534 91.072,69.494 98.581,61.337
  			97.487,60.33 89.978,68.487 88.885,67.481 87.791,66.474 84.509,63.453 88.264,59.375 87.17,58.368 83.416,62.446 81.538,64.485
  			82.632,65.492 85.914,68.513 84.036,70.552 82.159,72.592 83.253,73.598 86.534,76.619 87.628,77.626 89.505,75.587
  			102.646,61.312 104.523,59.272 106.4,57.233 108.278,55.194 		"/>
  	</g>
  	<g>

  			<rect x="143.842" y="157.885" transform="matrix(-0.9303 -0.3668 0.3668 -0.9303 252.3008 407.0394)" fill="#F5F5F7" width="41.955" height="43.333"/>

  			<rect x="147.338" y="161.496" transform="matrix(-0.9303 -0.3668 0.3668 -0.9303 252.3008 407.0394)" fill="#E6E6E6" width="34.962" height="36.111"/>
  	</g>
  	<g>

  			<rect x="125.847" y="196.667" transform="matrix(-1 -4.514357e-11 4.514357e-11 -1 294.4861 436.6664)" fill="#F5F5F7" width="42.792" height="43.333"/>

  			<rect x="129.413" y="200.278" transform="matrix(-1 -4.483759e-11 4.483759e-11 -1 294.4861 436.6664)" fill="#E6E6E6" width="35.66" height="36.111"/>
  	</g>
  	<g>

  			<rect x="163.237" y="178.795" transform="matrix(-0.9866 0.1632 -0.1632 -0.9866 397.8124 368.233)" fill="#F5F5F7" width="41.078" height="43.333"/>

  			<rect x="166.661" y="182.406" transform="matrix(-0.9866 0.1632 -0.1632 -0.9866 397.8124 368.233)" fill="#E6E6E6" width="34.232" height="36.111"/>
  	</g>
  	<g>
  		<polygon fill="#D6D8DE" points="127.838,30.957 143.894,27.549 144.966,32.599 148.177,31.917 147.106,26.868 146.838,25.605
  			143.626,26.287 127.57,29.695 124.359,30.376 124.627,31.639 124.895,32.901 121.683,33.583 120.879,29.795 149.781,23.661
  			150.853,28.711 154.064,28.029 152.992,22.98 152.725,21.717 149.513,22.399 120.612,28.533 117.4,29.215 117.668,30.477
  			118.472,34.264 118.74,35.526 121.951,34.845 125.162,34.163 128.374,33.482 128.106,32.219 		"/>
  		<polygon fill="#D6D8DE" points="155.404,34.341 155.136,33.079 154.868,31.816 154.332,29.291 151.121,29.973 151.657,32.498
  			142.023,34.543 141.487,32.018 138.276,32.699 138.811,35.224 139.079,36.486 142.291,35.805 151.925,33.76 152.192,35.022
  			123.291,41.157 122.487,37.37 132.121,35.325 132.389,36.587 125.966,37.95 126.234,39.213 132.657,37.85 135.868,37.168
  			135.6,35.906 135.332,34.643 135.064,33.381 134.796,32.119 141.219,30.755 140.951,29.493 134.528,30.856 131.317,31.538
  			131.585,32.8 131.853,34.063 122.219,36.107 119.008,36.789 119.276,38.051 120.08,41.838 120.347,43.101 123.559,42.419
  			152.46,36.285 155.672,35.603 		"/>
  	</g>
  	<g>
  		<polygon fill="#D6D8DE" points="177.441,209.829 176.369,203.351 173.298,203.859 174.37,210.337 174.906,213.576
  			177.976,213.068 181.047,212.56 181.583,215.798 172.372,217.322 169.692,201.128 175.833,200.112 175.297,196.874
  			169.156,197.89 167.549,188.173 170.619,187.665 171.691,194.143 174.761,193.635 173.689,187.157 179.83,186.141
  			179.294,182.902 173.153,183.918 170.083,184.427 167.013,184.935 163.943,185.443 164.478,188.681 166.086,198.398
  			166.622,201.637 169.302,217.83 169.838,221.069 172.908,220.561 182.119,219.037 185.189,218.529 184.653,215.29
  			184.117,212.052 183.581,208.813 180.511,209.321 		"/>
  		<polygon fill="#D6D8DE" points="194.645,180.362 191.574,180.87 188.504,181.378 182.364,182.394 182.9,185.633 189.04,184.617
  			190.648,194.334 184.507,195.35 185.043,198.588 191.184,197.572 194.254,197.064 193.718,193.825 192.11,184.109
  			195.181,183.601 197.86,199.795 194.79,200.303 191.72,200.811 192.256,204.05 193.328,210.527 196.398,210.019 195.326,203.542
  			198.396,203.034 200.004,212.75 190.793,214.274 189.185,204.558 188.65,201.319 185.579,201.827 182.509,202.335
  			180.901,192.619 187.042,191.603 186.506,188.364 180.365,189.38 177.295,189.888 177.831,193.127 179.439,202.843
  			179.975,206.082 183.045,205.574 186.115,205.066 187.723,214.782 188.259,218.021 191.329,217.513 200.54,215.989
  			203.61,215.481 203.074,212.242 201.466,202.526 200.93,199.287 198.251,183.093 197.715,179.854 		"/>
  	</g>
  	<g>

  			<rect x="149.861" y="213.278" transform="matrix(-1 -4.499924e-11 4.499924e-11 -1 343.0555 453.2775)" fill="#F5F5F7" width="43.333" height="26.722"/>

  			<rect x="153.472" y="215.505" transform="matrix(-1 -4.483137e-11 4.483137e-11 -1 343.0555 453.2775)" fill="#E6E6E6" width="36.111" height="22.269"/>
  	</g>
  	<g>
  		<g>

  				<rect x="51.517" y="86.873" transform="matrix(0.7071 -0.7071 0.7071 0.7071 -59.1698 72.2642)" fill="#666B85" width="12.257" height="41.366"/>
  			<path fill="#CCCED6" d="M38.687,97.265l-2.484-2.484c-0.423-0.423-0.08-1.452,0.766-2.298l5.603-5.603
  				c0.846-0.846,1.875-1.189,2.298-0.766l2.484,2.484L38.687,97.265z"/>
  			<polygon fill="#F5F5F7" points="78.771,128.681 67.937,126.515 76.604,117.848 			"/>
  		</g>
  		<polygon fill="#666B85" points="78.771,128.681 74.257,127.779 77.868,124.167 		"/>
  	</g>
  	<g>
  		<g>

  				<rect x="72.028" y="16.513" transform="matrix(0.866 -0.5 0.5 0.866 -8.1269 44.0613)" fill="#666B85" width="12.257" height="41.366"/>
  			<path fill="#CCCED6" d="M62.507,22.348l-1.756-3.042c-0.299-0.518,0.298-1.423,1.335-2.022l6.862-3.962
  				c1.036-0.598,2.119-0.663,2.418-0.145l1.756,3.042L62.507,22.348z"/>
  			<polygon fill="#F5F5F7" points="93.094,63.068 83.19,58.172 93.805,52.043 			"/>
  		</g>
  		<polygon fill="#666B85" points="93.094,63.068 88.967,61.028 93.39,58.475 		"/>
  	</g>
  	<g>
  		<g>
  			<path fill="#F5F5F7" d="M40.18,214.949c-10.683-3.063-21.367-6.126-32.05-9.189c4.741-13.717,3.072-26.377,0-40.167
  				c10.683,2.009,21.367,4.018,32.05,6.028C43.696,187.401,44.091,199.249,40.18,214.949z"/>
  			<path fill="#E6E6E6" d="M38.558,210.912c-10.709-2.983-16.063-4.474-26.772-7.457c2.33-12.901,2.16-20.834,0-33.821
  				c10.709,2.102,16.063,3.152,26.772,5.254C41.58,186.657,41.87,199.171,38.558,210.912z"/>
  		</g>
  	</g>
  	<g>
  		<g>

  				<rect x="6.212" y="194.136" transform="matrix(-0.9496 -0.3136 0.3136 -0.9496 -33.036 426.2906)" fill="#F5F5F7" width="23.112" height="43.333"/>

  				<rect x="8.138" y="197.747" transform="matrix(-0.9496 -0.3136 0.3136 -0.9496 -33.036 426.2906)" fill="#E6E6E6" width="19.26" height="36.111"/>
  		</g>
  		<g>
  			<polygon fill="#D6D8DE" points="10.579,229 5.562,227.35 12.744,205.52 19.433,207.72 20.459,204.602 13.77,202.401
  				14.796,199.283 21.485,201.483 22.511,198.365 15.822,196.164 14.15,195.614 13.124,198.732 12.098,201.851 11.072,204.97
  				3.89,226.8 2.864,229.918 4.536,230.468 9.553,232.119 11.225,232.669 12.251,229.55 14.303,223.313 12.631,222.763 			"/>
  			<polygon fill="#D6D8DE" points="30.872,201.115 25.855,199.465 24.183,198.915 23.157,202.033 21.105,208.27 22.777,208.821
  				24.829,202.583 29.846,204.234 24.716,219.827 23.043,219.277 27.147,206.802 25.475,206.252 21.371,218.726 20.345,221.845
  				22.017,222.395 23.69,222.945 20.612,232.301 15.595,230.651 16.621,227.532 19.965,228.632 20.991,225.514 17.647,224.413
  				18.673,221.295 19.699,218.176 18.027,217.626 13.01,215.976 14.036,212.857 20.725,215.058 21.751,211.939 15.062,209.739
  				13.39,209.188 12.364,212.307 11.338,215.426 10.312,218.544 8.26,224.781 9.932,225.331 11.984,219.094 17.001,220.745
  				15.975,223.863 14.949,226.982 13.923,230.1 12.897,233.219 14.569,233.769 19.586,235.42 21.258,235.97 22.284,232.851
  				25.362,223.495 26.388,220.377 31.518,204.784 32.544,201.665 			"/>
  		</g>
  	</g>
  	<g>
  		<polygon fill="#D6D8DE" points="85.711,180.367 82.661,186.196 71.815,180.52 70.29,183.434 83.848,190.529 86.898,184.701
  			95.032,188.958 87.407,203.529 81.984,200.691 80.459,203.605 85.882,206.443 81.306,215.186 70.46,209.51 68.935,212.424
  			82.493,219.519 99.269,187.462 		"/>
  		<polygon fill="#D6D8DE" points="80.12,210.853 81.645,207.939 76.222,205.1 80.797,196.358 86.22,199.196 90.796,190.453
  			88.084,189.034 85.034,194.862 79.611,192.024 73.51,203.681 65.376,199.424 65.376,199.424 62.664,198.005 61.139,200.92
  			66.562,203.758 65.037,206.672 56.902,202.415 64.528,187.843 72.663,192.101 69.612,197.929 72.324,199.348 76.899,190.605
  			66.053,184.929 70.628,176.186 81.475,181.863 83,178.948 69.442,171.853 52.666,203.91 66.223,211.005 69.274,205.177 		"/>
  		<path fill="#666B85" d="M68.138,190.846c-1.797-0.94-4.073-0.137-5.084,1.794l-1.83,3.497l1.271-0.449l0.356,1.3l1.271-0.449
  			l0.356,1.3l1.271-0.449l0.356,1.3l1.271-0.449l0.356,1.3l1.83-3.497C70.572,194.115,69.935,191.787,68.138,190.846z
  			 M64.859,194.142c-0.449-0.235-0.557-0.915-0.242-1.519c0.316-0.604,0.936-0.902,1.385-0.667s0.557,0.915,0.242,1.519
  			C65.928,194.078,65.308,194.377,64.859,194.142z M67.299,195.419c-0.449-0.235-0.557-0.915-0.242-1.519
  			c0.316-0.604,0.936-0.902,1.385-0.667c0.449,0.235,0.557,0.915,0.242,1.519C68.368,195.355,67.748,195.654,67.299,195.419z"/>
  	</g>
  	<g>
  		<polygon fill="#F5F5F7" points="70.94,240 114.273,240 117.271,208.944 73.938,208.944 		"/>
  		<polygon fill="#E6E6E6" points="74.801,237.412 110.912,237.412 113.41,211.532 77.299,211.532 		"/>
  	</g>
  </g>
</svg>
