<svg xmlns="http://www.w3.org/2000/svg" viewBox="0 0 72 72">
  <g>
  	<circle fill="#666B85" cx="36" cy="36" r="36"/>
  	<g>
  		<path fill="#D6D8DE" d="M41.293,17L52,27.707V55H20V17H41.293 M41.707,16H19v40h34V27.292L41.707,16L41.707,16z"/>
  	</g>
  	<rect x="41" y="17" fill="#D6D8DE" width="1" height="11"/>
  	<rect x="46" y="22" transform="matrix(5.093177e-11 -1 1 5.093177e-11 19.0002 73.9998)" fill="#D6D8DE" width="1" height="11"/>
  	<g>
  		<path fill="#D6D8DE" d="M34,42v7h-7v-7H34 M35,41h-9v9h9V41L35,41z"/>
  	</g>
  	<g>
  		<path fill="#D6D8DE" d="M34,31v7h-7v-7H34 M34,30h-7c-0.552,0-1,0.448-1,1v7c0,0.552,0.448,1,1,1h7c0.552,0,1-0.448,1-1v-7
  			C35,30.448,34.552,30,34,30L34,30z"/>
  	</g>
  	<g>
  		<path fill="#D6D8DE" d="M45,42v7h-7v-7H45 M45,41h-7c-0.552,0-1,0.448-1,1v7c0,0.552,0.448,1,1,1h7c0.552,0,1-0.448,1-1v-7
  			C46,41.448,45.552,41,45,41L45,41z"/>
  	</g>
  	<g>
  		<path fill="#D6D8DE" d="M45,31v7h-7v-7H45 M46,30h-9v9h9V30L46,30z"/>
  	</g>
  </g>
</svg>
