<svg xmlns="http://www.w3.org/2000/svg" viewBox="0 0 260 260">
  <g>
  	<g>
  		<polygon fill="#E6E6E6" points="140,20 140,60 60,60 60,80 160,80 160,40 220,40 220,140 180,140 180,160 220,160 220,220
  			140,220 140,240 240,240 240,20 		"/>
  		<polygon fill="#E6E6E6" points="200,200 200,180 160,180 160,120 200,120 200,60 180,60 180,100 140,100 140,180 80,180 80,180
  			60,180 60,200 100,200 100,220 40,220 40,120 100,120 100,160 120,160 120,100 40,100 40,40 120,40 120,20 20,20 20,240 120,240
  			120,200 		"/>
  	</g>
  	<path fill="#666B85" d="M70,126.001c-13.254,0-23.999,10.745-23.999,23.999v23.999l6-6l6,6l6-6l6,6l6-6l6,6l6-6l6,6V150
  		C93.999,136.745,83.254,126.001,70,126.001z M61,153c-3.314,0-6-3.358-6-7.5c0-4.142,2.686-7.5,6-7.5c3.314,0,6,3.358,6,7.5
  		C67,149.642,64.314,153,61,153z M79,153c-3.314,0-6-3.358-6-7.5c0-4.142,2.686-7.5,6-7.5c3.314,0,6,3.358,6,7.5
  		C85,149.642,82.313,153,79,153z"/>
  	<polygon fill="#D6D8DE" points="101.485,20 101.485,22.881 102.444,24.524 101.964,29.045 100.8,34.25 102.444,40 102.764,40
  		120,40 120,20 	"/>
  	<path fill="#D6D8DE" d="M240,225.396l-4.448,3.512l-5.72-4.206c0,0-5.174,1.201-6.27,1.514s-3.151,2.355-3.151,2.355l-3.561,0.816
  		l1.252,3.288l-1.722,3.053l1.722,4.271H240V225.396z"/>
  	<polygon fill="#D6D8DE" points="20,74.816 25.493,78.666 29.553,82.333 30.986,86.916 30.986,93.516 30.986,101.033 30.986,109.1
  		34.329,114.783 31.941,122.666 25.732,130 20,127.25 	"/>
  	<polygon fill="#D6D8DE" points="180,89.346 186.467,86.733 189.033,91.107 187.2,99.2 191.6,106.166 185.8,111.666
  		176.933,111.666 171.433,106.9 167.4,100 180,100 	"/>
  	<polygon fill="#D6D8DE" points="90,200 87,194.9 93,190.775 100.85,190.775 106.9,195.387 112.675,198.475 109.682,204.8
  		103.05,207 99.838,205.075 100,200 	"/>
  	<polygon fill="#D6D8DE" points="101.577,100 109.682,109.519 112.675,124.537 109.682,135.897 116.407,141.261 120,141.261
  		120,100 	"/>
  	<polygon fill="#D6D8DE" points="40,169 34.329,170 31.55,179.225 27.164,183.075 29.075,188.575 33.582,186.925 34.329,192.975
  		40,190.775 	"/>
  	<polygon fill="#D6D8DE" points="152.272,220 152.272,222.639 150,224.703 152.272,227.45 159.542,229.053 168.135,227.806
  		176.507,224.703 178.71,221.392 176.287,220 	"/>
  	<polygon fill="#D6D8DE" points="233.881,131.307 225.59,130 220,126.412 220,140 207.125,140 212.242,144.208 216.024,150.44
  		213.354,156.224 214.467,160 220,160 220,169 230.289,172.264 234.139,163.749 232.3,163.183 229.733,162.45 229,158.6
  		230.833,155.483 235.233,155.3 237.162,159.859 240,157.336 240,140.083 	"/>
  	<polygon fill="#D6D8DE" points="197.333,20 196.207,22.569 196.77,26.429 200,27.877 206.018,28.842 208.27,30 212.934,27.072
  		219.207,27.555 225.319,26.268 227.571,20 	"/>
  </g>
</svg>
