<svg xmlns="http://www.w3.org/2000/svg" xmlns:xlink="http://www.w3.org/1999/xlink" viewBox="0 0 260 260">
  <g>
  	<g>
  		<path fill="#F6F6F6" d="M256.65,212.412L256.65,212.412l-0.009-0.015C256.644,212.402,256.647,212.407,256.65,212.412z"/>
  	</g>
  	<g>
  		<path fill="#808499" d="M26.38,237.292c-13.053,0-23.672-10.619-23.672-23.672s10.619-23.673,23.672-23.673h207.24
  			c13.053,0,23.672,10.62,23.672,23.673s-10.619,23.672-23.672,23.672H26.38z"/>
  		<path fill="#B2B5C2" d="M233.62,192.656c11.559,0,20.964,9.404,20.964,20.964c0,11.559-9.404,20.964-20.964,20.964H26.38
  			c-11.559,0-20.964-9.404-20.964-20.964c0-11.559,9.404-20.964,20.964-20.964H233.62 M233.62,187.24H26.38
  			C11.811,187.24,0,199.05,0,213.62v0C0,228.189,11.811,240,26.38,240h207.24c14.569,0,26.38-11.811,26.38-26.38v0
  			C260,199.05,248.189,187.24,233.62,187.24L233.62,187.24z"/>
  	</g>
  	<path fill="#EEEEEE" d="M252.417,187.24H51.67c-1.795,0-3.25-1.455-3.25-3.25V24.363c0-1.795,1.455-3.25,3.25-3.25h200.746
  		c1.795,0,3.25,1.455,3.25,3.25V183.99C255.667,185.784,254.212,187.24,252.417,187.24z"/>
  	<g>
  		<path fill="#666B85" d="M170.548,93.543c-2.725,0-4.934,2.209-4.934,4.934c0,2.725,2.209,4.934,4.934,4.934
  			s4.934-2.209,4.934-4.934C175.482,95.752,173.273,93.543,170.548,93.543z M170.548,100.328c-1.022,0-1.85-0.828-1.85-1.85
  			c0-1.022,0.829-1.85,1.85-1.85s1.85,0.828,1.85,1.85C172.398,99.499,171.57,100.328,170.548,100.328z"/>
  		<path fill="#666B85" d="M177.949,118.215c-2.725,0-4.934,2.209-4.934,4.934c0,2.725,2.209,4.934,4.934,4.934
  			s4.934-2.209,4.934-4.934C182.884,120.424,180.674,118.215,177.949,118.215z M177.949,125c-1.022,0-1.85-0.828-1.85-1.85
  			c0-1.022,0.828-1.85,1.85-1.85s1.85,0.828,1.85,1.85C179.8,124.171,178.971,125,177.949,125z"/>
  		<path fill="#666B85" d="M185.351,93.543c-2.725,0-4.934,2.209-4.934,4.934c0,2.725,2.209,4.934,4.934,4.934
  			s4.934-2.209,4.934-4.934C190.285,95.752,188.076,93.543,185.351,93.543z M185.351,100.328c-1.022,0-1.85-0.828-1.85-1.85
  			c0-1.022,0.828-1.85,1.85-1.85s1.85,0.828,1.85,1.85C187.201,99.499,186.373,100.328,185.351,100.328z"/>
  		<polyline fill="none" stroke="#666B85" stroke-width="3.7008" stroke-miterlimit="10" points="170.548,100.944 170.548,107.112
  			177.949,114.514 		"/>
  		<polyline fill="none" stroke="#666B85" stroke-width="3.7008" stroke-miterlimit="10" points="185.351,100.944 185.351,107.112
  			177.949,114.514 		"/>

  			<line fill="none" stroke="#666B85" stroke-width="3.7008" stroke-miterlimit="10" x1="177.949" y1="114.514" x2="177.949" y2="120.682"/>
  	</g>
  	<g>
  		<g id="Octicons_84_">
  			<g id="heart_67_">
  				<path id="Shape_84_" fill="#666B85" d="M141.105,97.86c-1.497-1.813-3.598-2.735-6.333-2.878c-2.792,0-4.865,1.209-6.333,2.878
  					c-1.468,1.669-2.245,2.648-2.303,2.878c-0.058-0.23-0.806-1.209-2.303-2.878c-1.497-1.669-3.368-2.878-6.333-2.878
  					c-2.735,0.144-4.865,1.094-6.333,2.878c-1.497,1.756-2.245,3.684-2.303,5.757c0,1.497,0.259,4.375,1.929,7.685
  					c1.669,3.31,6.736,8.463,15.342,15.342c8.578-6.879,13.73-12.003,15.371-15.342c1.641-3.339,1.9-6.246,1.9-7.685
  					c-0.058-2.072-0.806-4.001-2.303-5.814V97.86z"/>
  			</g>
  		</g>
  		<g>
  			<rect x="100.232" y="84.907" fill="none" width="51.812" height="51.812"/>
  		</g>
  	</g>
  	<g>
  		<rect x="152.043" y="84.907" fill="none" width="51.812" height="51.812"/>
  	</g>
  	<g>
  		<path fill="#999DAD" d="M202.56,86.203v49.221H101.527V86.203H202.56 M203.855,84.907H100.232v51.812h103.623V84.907
  			L203.855,84.907z"/>
  	</g>

  		<line fill="none" stroke="#999DAD" stroke-width="1.2953" stroke-miterlimit="10" x1="152.043" y1="84.907" x2="152.043" y2="136.719"/>
  	<g>
  		<path fill-rule="evenodd" clip-rule="evenodd" fill="#666B85" d="M113.515,163.477c-6.075-1.831-10.195-17.582,0.671-17.735
  			c1.465-0.015,2.411,0.778,3.541,0.992c0.839,0.153,1.74-0.931,4.625-0.931c1.847,0,3.48,0.87,4.594,2.244
  			c-3.648,2.366-3.8,6.96,0.626,9.234c-0.427,1.831-2.992,5.266-4.335,5.937c-1.648,0.824-3.678-0.626-5.296-0.687
  			C116.491,162.485,115.041,163.614,113.515,163.477L113.515,163.477z"/>
  		<path fill-rule="evenodd" clip-rule="evenodd" fill="#666B85" d="M117.401,146.001c3.052,0.153,5.067-3.22,4.762-5.54
  			C120.256,140.629,117.218,142.521,117.401,146.001z"/>
  	</g>
  	<g>
  		<rect x="100.232" y="135.424" fill="none" width="34.541" height="34.541"/>
  	</g>
  	<g>
  		<g>
  			<polygon fill="#666B85" points="142.463,159.492 149.383,160.861 149.383,153.117 142.463,153.117 			"/>
  			<polygon fill="#666B85" points="142.463,152.254 149.383,152.254 149.383,144.526 142.463,145.896 			"/>
  			<polygon fill="#666B85" points="150.466,152.254 161.624,152.254 161.624,142.102 150.466,144.312 			"/>
  			<polygon fill="#666B85" points="150.466,161.077 161.624,163.287 161.624,153.117 150.466,153.117 			"/>
  		</g>
  	</g>
  	<g>
  		<rect x="134.773" y="135.424" fill="none" width="34.541" height="34.541"/>
  	</g>
  	<g>
  		<rect x="169.314" y="135.424" fill="none" width="34.541" height="34.541"/>
  	</g>
  	<g>
  		<path fill="#999DAD" d="M202.56,136.719v31.95H101.527v-31.95H202.56 M203.855,135.424H100.232v34.541h103.623V135.424
  			L203.855,135.424z"/>
  	</g>

  		<line fill="none" stroke="#999DAD" stroke-width="1.2953" stroke-miterlimit="10" x1="134.773" y1="135.424" x2="134.773" y2="169.965"/>

  		<line fill="none" stroke="#999DAD" stroke-width="1.2953" stroke-miterlimit="10" x1="169.314" y1="135.424" x2="169.314" y2="169.965"/>
  	<g>
  		<polygon fill="#E3E4E9" points="138.227,21.113 138.227,67.637 141.681,64.183 145.135,67.637 148.589,64.183 152.043,67.637
  			155.497,64.183 158.951,67.637 162.406,64.183 165.859,67.637 165.86,67.637 165.86,21.113 		"/>
  	</g>
  	<g>
  		<g>
  			<defs>
  				<circle id="SVGID_1_" cx="130.082" cy="213.62" r="20.952"/>
  			</defs>
  			<use xlink:href="#SVGID_1_"  overflow="visible" fill="#D6D8DE"/>
  			<clipPath id="SVGID_2_">
  				<use xlink:href="#SVGID_1_"  overflow="visible"/>
  			</clipPath>
  			<polygon clip-path="url(#SVGID_2_)" fill="#E5E6EB" points="139.106,190.521 130,213.616 130,213.616 124.851,188.896 			"/>
  			<polygon clip-path="url(#SVGID_2_)" fill="#FFFFFF" points="130,213.616 116.636,234.035 112.934,230.424 			"/>
  			<polygon clip-path="url(#SVGID_2_)" fill="#F5F5F7" points="130,213.616 147.511,228.077 140.92,233.674 			"/>
  		</g>
  		<circle fill="#808499" cx="130.082" cy="213.62" r="6.984"/>
  	</g>
  	<g>
  		<g>
  			<defs>

  					<ellipse id="SVGID_3_" transform="matrix(0.6567 -0.7541 0.7541 0.6567 -134.2437 132.3273)" cx="78.229" cy="213.62" rx="20.952" ry="20.952"/>
  			</defs>
  			<use xlink:href="#SVGID_3_"  overflow="visible" fill="#D6D8DE"/>
  			<clipPath id="SVGID_4_">
  				<use xlink:href="#SVGID_3_"  overflow="visible"/>
  			</clipPath>
  			<polygon clip-path="url(#SVGID_4_)" fill="#E5E6EB" points="100.204,202.127 78.17,213.564 78.17,213.564 90.521,191.54 			"/>
  			<polygon clip-path="url(#SVGID_4_)" fill="#FFFFFF" points="78.17,213.564 54.682,220.185 54.262,215.031 			"/>
  			<polygon clip-path="url(#SVGID_4_)" fill="#F5F5F7" points="78.17,213.564 81.879,235.968 73.233,235.861 			"/>
  		</g>

  			<ellipse transform="matrix(0.6567 -0.7541 0.7541 0.6567 -134.2437 132.3273)" fill="#808499" cx="78.229" cy="213.62" rx="6.984" ry="6.984"/>
  	</g>
  	<g>
  		<g>
  			<defs>

  					<ellipse id="SVGID_5_" transform="matrix(0.9404 -0.34 0.34 0.9404 -71.0544 21.6918)" cx="26.377" cy="213.62" rx="20.952" ry="20.952"/>
  			</defs>
  			<use xlink:href="#SVGID_5_"  overflow="visible" fill="#D6D8DE"/>
  			<clipPath id="SVGID_6_">
  				<use xlink:href="#SVGID_5_"  overflow="visible"/>
  			</clipPath>
  			<polygon clip-path="url(#SVGID_6_)" fill="#E5E6EB" points="25.742,238.411 26.454,213.595 26.454,213.595 39.701,235.093 			"/>
  			<polygon clip-path="url(#SVGID_6_)" fill="#FFFFFF" points="26.454,213.595 32.081,189.849 36.789,191.987 			"/>
  			<polygon clip-path="url(#SVGID_6_)" fill="#F5F5F7" points="26.454,213.595 5.071,205.95 9.365,198.445 			"/>
  		</g>
  		<g>

  				<ellipse transform="matrix(0.9404 -0.34 0.34 0.9404 -71.0544 21.6918)" fill="#808499" cx="26.377" cy="213.62" rx="6.984" ry="6.984"/>
  		</g>
  	</g>
  	<g>
  		<g>
  			<defs>

  					<ellipse id="SVGID_7_" transform="matrix(0.8781 -0.4784 0.4784 0.8781 -80.0257 113.0688)" cx="181.934" cy="213.62" rx="20.952" ry="20.952"/>
  			</defs>
  			<use xlink:href="#SVGID_7_"  overflow="visible" fill="#D6D8DE"/>
  			<clipPath id="SVGID_8_">
  				<use xlink:href="#SVGID_7_"  overflow="visible"/>
  			</clipPath>
  			<polygon clip-path="url(#SVGID_8_)" fill="#E5E6EB" points="157.333,216.745 181.97,213.693 181.97,213.693 162.725,230.041
  				"/>
  			<polygon clip-path="url(#SVGID_8_)" fill="#FFFFFF" points="181.97,213.693 206.294,215.661 204.894,220.639 			"/>
  			<polygon clip-path="url(#SVGID_8_)" fill="#F5F5F7" points="181.97,213.693 186.291,191.398 194.359,194.508 			"/>
  		</g>

  			<ellipse transform="matrix(0.8781 -0.4784 0.4784 0.8781 -80.0257 113.0688)" fill="#808499" cx="181.934" cy="213.62" rx="6.984" ry="6.984"/>
  	</g>
  	<g>
  		<g>
  			<defs>

  					<ellipse id="SVGID_9_" transform="matrix(0.9525 -0.3045 0.3045 0.9525 -53.9481 81.3383)" cx="233.786" cy="213.62" rx="20.952" ry="20.952"/>
  			</defs>
  			<use xlink:href="#SVGID_9_"  overflow="visible" fill="#D6D8DE"/>
  			<clipPath id="SVGID_10_">
  				<use xlink:href="#SVGID_9_"  overflow="visible"/>
  			</clipPath>
  			<polygon clip-path="url(#SVGID_10_)" fill="#E5E6EB" points="232.224,238.37 233.865,213.598 233.865,213.598 246.297,235.577
  							"/>
  			<polygon clip-path="url(#SVGID_10_)" fill="#FFFFFF" points="233.865,213.598 240.377,190.08 245.002,192.392 			"/>
  			<polygon clip-path="url(#SVGID_10_)" fill="#F5F5F7" points="233.865,213.598 212.783,205.157 217.356,197.819 			"/>
  		</g>

  			<ellipse transform="matrix(0.9525 -0.3045 0.3045 0.9525 -53.9481 81.3383)" fill="#808499" cx="233.786" cy="213.62" rx="6.984" ry="6.984"/>
  	</g>
  	<g>
  		<g>
  			<path fill="#666B85" d="M196.542,160.421c-0.055-0.095-0.133-0.182-0.238-0.264c-0.054-0.043-0.112-0.081-0.169-0.12
  				l-0.077-0.052c-0.163-0.109-0.313-0.234-0.464-0.36c-0.159-0.131-0.299-0.251-0.418-0.389c-0.126-0.151-0.204-0.302-0.234-0.449
  				c-0.014-0.071-0.017-0.144-0.02-0.217l-0.008-0.128c-0.014-0.169-0.05-0.324-0.104-0.458c-0.048-0.124-0.111-0.225-0.188-0.302
  				c-0.097-0.098-0.224-0.17-0.401-0.225c-0.009-0.003-0.018-0.002-0.028-0.005c0.129-0.236,0.218-0.496,0.268-0.761
  				c0.1-0.53,0.054-1.078-0.039-1.61c-0.126-0.725-0.339-1.434-0.609-2.118c-0.199-0.504-0.432-0.999-0.757-1.432
  				c-0.318-0.424-0.719-0.78-1.031-1.209c-0.151-0.207-0.29-0.424-0.443-0.629c-0.08-0.164-0.16-0.327-0.236-0.492
  				c-0.206-0.448-0.393-0.907-0.636-1.335c-0.035-0.061-0.081-0.114-0.118-0.174c-0.031-0.418-0.076-0.835-0.097-1.254
  				c-0.042-0.823,0.009-1.662-0.207-2.458c-0.105-0.388-0.273-0.758-0.489-1.097c-0.253-0.397-0.574-0.753-0.955-1.029
  				c-0.608-0.441-1.362-0.668-2.113-0.676c-0.554-0.006-1.115,0.106-1.603,0.369c-0.518,0.279-0.943,0.726-1.205,1.254
  				c-0.262,0.527-0.36,1.122-0.38,1.711c-0.019,0.578,0.034,1.155,0.055,1.733c0.022,0.601,0.01,1.203,0.06,1.802
  				c0.016,0.193,0.039,0.386,0.038,0.58c0,0.095-0.006,0.19-0.007,0.285c-0.003,0.009-0.005,0.018-0.008,0.026
  				c-0.075,0.187-0.17,0.364-0.274,0.537c-0.198,0.247-0.395,0.494-0.592,0.741c-0.221,0.277-0.441,0.555-0.664,0.831
  				c-0.273,0.339-0.553,0.68-0.73,1.077c-0.153,0.341-0.225,0.712-0.33,1.07c-0.119,0.408-0.28,0.802-0.461,1.185
  				c-0.167,0.354-0.352,0.701-0.536,1.046c-0.134,0.252-0.271,0.509-0.318,0.79c-0.037,0.222-0.015,0.452,0.041,0.67
  				c0.014,0.053,0.044,0.101,0.061,0.153c-0.019,0.02-0.043,0.025-0.062,0.047c-0.094,0.114-0.166,0.237-0.248,0.38
  				c-0.055,0.097-0.109,0.196-0.176,0.287c-0.071,0.095-0.146,0.166-0.224,0.211c-0.08,0.047-0.183,0.073-0.315,0.084
  				c-0.099,0.01-0.201,0.004-0.304,0.002l-0.088-0.003c-0.149,0-0.302-0.001-0.455,0.03c-0.186,0.04-0.345,0.12-0.459,0.23
  				c-0.126,0.122-0.214,0.292-0.253,0.492c-0.034,0.171-0.029,0.344-0.019,0.491c0.011,0.156,0.028,0.309,0.044,0.463
  				c0.019,0.173,0.038,0.348,0.048,0.522c0.018,0.369-0.018,0.654-0.115,0.894c-0.033,0.083-0.073,0.162-0.113,0.241
  				c-0.053,0.103-0.106,0.206-0.146,0.316c-0.045,0.128-0.069,0.244-0.072,0.36c-0.001,0.145,0.033,0.281,0.098,0.39
  				c0.08,0.139,0.216,0.252,0.388,0.328c0.116,0.052,0.239,0.085,0.406,0.128c0.167,0.046,0.332,0.098,0.496,0.152
  				c0.117,0.037,0.235,0.075,0.352,0.11c0.383,0.115,0.778,0.202,1.16,0.287c0.546,0.121,1.111,0.245,1.632,0.452
  				c0.094,0.037,0.188,0.076,0.281,0.116c0.358,0.151,0.727,0.308,1.134,0.324c0.021,0,0.043,0.001,0.065,0.001
  				c0.311,0,0.626-0.087,0.896-0.248c0.288-0.17,0.523-0.42,0.679-0.72c0.077-0.149,0.126-0.31,0.16-0.475
  				c0.32-0.064,0.642-0.12,0.967-0.128c0.073-0.002,0.145-0.01,0.218-0.014c0.255,0.03,0.511,0.042,0.768,0.032
  				c0.039-0.002,0.077-0.012,0.116-0.014c0.055,0.005,0.107,0.021,0.162,0.024c0.425,0.025,0.85,0.066,1.271,0.13
  				c0.37,0.056,0.738,0.129,1.102,0.217c0.101,0.024,0.202,0.049,0.303,0.075c0.03,0.132,0.068,0.268,0.147,0.394
  				c0.143,0.227,0.381,0.414,0.707,0.554c0.309,0.132,0.625,0.201,0.929,0.201c0.097,0,0.194-0.007,0.288-0.021
  				c0.323-0.048,0.647-0.183,0.938-0.391c0.203-0.145,0.381-0.317,0.552-0.485l0.157-0.149c0.275-0.261,0.542-0.474,0.816-0.651
  				c0.322-0.207,0.677-0.38,1.022-0.546c0.131-0.063,0.262-0.127,0.393-0.193c0.28-0.141,0.598-0.313,0.83-0.587
  				c0.106-0.124,0.19-0.264,0.252-0.418c0.003-0.01,0.006-0.019,0.008-0.029C196.655,160.761,196.629,160.575,196.542,160.421z"/>
  		</g>
  		<path fill="#EEEEEE" d="M191.2,156.993c-0.009,0.076-0.022,0.152-0.033,0.229c-0.034-0.005-0.07-0.014-0.104-0.019l-0.185-0.026
  			c-0.109-0.017-0.221-0.032-0.341-0.025c-0.167,0.007-0.314,0.061-0.424,0.157c-0.114,0.099-0.193,0.251-0.22,0.426
  			c-0.019,0.13-0.012,0.254-0.002,0.398c0.047,0.683,0.038,1.292-0.012,1.867c-0.06,0.059-0.117,0.121-0.177,0.18
  			c-0.492,0.476-1.002,0.947-1.606,1.269c-1.119,0.596-2.511,0.602-3.666,0.079c-0.074-0.132-0.156-0.266-0.264-0.41
  			c-0.097-0.129-0.199-0.253-0.302-0.378c-0.105-0.127-0.208-0.253-0.306-0.384c-0.216-0.289-0.403-0.609-0.584-0.919
  			c-0.066-0.111-0.13-0.221-0.197-0.331c-0.288-0.477-0.628-0.982-1.04-1.54c-0.024-0.033-0.05-0.062-0.075-0.094
  			c-0.057-0.474-0.066-0.954-0.02-1.429c0.082-0.836,0.314-1.654,0.653-2.422c0.224-0.507,0.494-0.994,0.806-1.452
  			c-0.03-0.289-0.002-0.584,0.081-0.863c0.137-0.46,0.419-0.861,0.698-1.252c0.161-0.226,0.325-0.457,0.399-0.725
  			c0.069-0.25,0.053-0.514,0.063-0.773c0-0.009,0.003-0.018,0.003-0.027c0.079,0.072,0.174,0.127,0.245,0.207
  			c0.047,0.053,0.091,0.108,0.135,0.162c0.131,0.161,0.268,0.326,0.446,0.444c0.168,0.111,0.377,0.18,0.601,0.199
  			c0.049,0.004,0.098,0.006,0.149,0.006c0.182,0,0.378-0.027,0.583-0.084c0.226-0.06,0.436-0.145,0.622-0.253
  			c0.133-0.075,0.258-0.166,0.381-0.253c0.215-0.153,0.417-0.298,0.656-0.375c0.029-0.01,0.058-0.017,0.088-0.025
  			c0.058-0.016,0.118-0.033,0.176-0.058c0.052-0.021,0.096-0.048,0.133-0.077c0.037-0.028,0.061-0.065,0.083-0.102
  			c0.077,0.162,0.138,0.331,0.207,0.496c0.17,0.404,0.394,0.783,0.577,1.182c0.254,0.552,0.429,1.141,0.517,1.742
  			c0.332,0.343,0.61,0.74,0.818,1.17C191.37,154.159,191.365,155.615,191.2,156.993z M188.716,147.518
  			c-0.014,0.113-0.049,0.223-0.064,0.336c-0.011,0.088-0.011,0.179-0.049,0.259c-0.04,0.083-0.118,0.141-0.201,0.18
  			c-0.083,0.039-0.172,0.062-0.258,0.094c-0.394,0.146-0.693,0.468-1.051,0.689c-0.188,0.116-0.393,0.204-0.605,0.266
  			c-0.229,0.067-0.469,0.106-0.706,0.082c-0.202-0.02-0.401-0.087-0.567-0.204c-0.235-0.165-0.391-0.417-0.568-0.645
  			c-0.131-0.169-0.279-0.33-0.461-0.444c-0.034-0.021-0.069-0.041-0.102-0.065c-0.033-0.024-0.063-0.052-0.083-0.086
  			c-0.01-0.016-0.016-0.035-0.021-0.053c-0.002-0.004-0.005-0.006-0.006-0.01c-0.005-0.014-0.007-0.03-0.007-0.045
  			c0-0.03,0.007-0.06,0.013-0.09c0.016-0.08,0.025-0.161,0.051-0.238c0.033-0.098,0.092-0.185,0.158-0.265
  			c0.114-0.14,0.249-0.263,0.399-0.364c0.246-0.29,0.571-0.512,0.931-0.637c0.323-0.112,0.682-0.145,1.009-0.046
  			c0.147,0.044,0.284,0.114,0.419,0.186c0.131,0.07,0.261,0.144,0.394,0.21c0.268,0.133,0.551,0.237,0.843,0.308
  			c0.095,0.023,0.191,0.042,0.28,0.082c0.065,0.029,0.128,0.07,0.164,0.132c0.006,0.011,0.006,0.024,0.01,0.036
  			c0.003,0.003,0.008,0.004,0.01,0.007c0.035,0.045,0.056,0.1,0.065,0.156C188.724,147.404,188.723,147.461,188.716,147.518z
  			 M186.27,146.504c0.018,0.058,0.11,0.048,0.164,0.076c0.047,0.024,0.085,0.077,0.138,0.079c0.051,0.001,0.13-0.018,0.137-0.068
  			c0.009-0.066-0.088-0.108-0.15-0.132c-0.05-0.02-0.11-0.033-0.166-0.03c-0.033,0.002-0.064,0.009-0.093,0.024
  			C186.283,146.462,186.264,146.485,186.27,146.504z M185.235,146.633c0.01,0.017,0.041,0.039,0.062,0.027
  			c0.032-0.018,0.058-0.08,0.093-0.105c0.023-0.016,0.018-0.076-0.009-0.085c0,0-0.018-0.003-0.027-0.002
  			C185.286,146.478,185.202,146.579,185.235,146.633z M188.324,147.393c-0.002,0-0.004,0-0.006-0.001
  			c-0.071-0.012-0.145-0.018-0.214,0.004c-0.045,0.014-0.085,0.041-0.122,0.071c-0.036,0.03-0.069,0.064-0.103,0.097
  			c-0.1,0.097-0.21,0.182-0.321,0.266c-0.245,0.183-0.502,0.356-0.787,0.468c-0.186,0.073-0.381,0.12-0.577,0.159
  			c-0.247,0.049-0.498,0.087-0.749,0.078c-0.251-0.01-0.505-0.07-0.718-0.204c-0.096-0.061-0.183-0.136-0.276-0.201
  			c-0.094-0.065-0.198-0.119-0.311-0.132c-0.02-0.002-0.04-0.004-0.059-0.007c0.001,0.008,0,0.015,0.002,0.023
  			c0.008,0.028,0.02,0.05,0.04,0.071c0.021,0.022,0.05,0.039,0.083,0.048c0.014,0.004,0.029,0.007,0.042,0.01l0.017,0.004
  			c0.066,0.016,0.134,0.056,0.208,0.124c0.03,0.025,0.057,0.053,0.085,0.08c0.04,0.039,0.08,0.078,0.124,0.114
  			c0.244,0.199,0.547,0.244,0.757,0.248c0.007,0.001,0.015,0.001,0.023,0.001c0.25,0,0.496-0.051,0.748-0.108
  			c0.18-0.04,0.388-0.089,0.587-0.162c0.295-0.108,0.567-0.271,0.808-0.481c0.029-0.025,0.057-0.051,0.086-0.076
  			c0.075-0.069,0.147-0.132,0.226-0.183c0.054-0.033,0.11-0.06,0.166-0.087c0.054-0.026,0.109-0.053,0.166-0.087
  			c0.011-0.006,0.022-0.014,0.032-0.022c0.014-0.012,0.03-0.029,0.038-0.048C188.328,147.439,188.324,147.416,188.324,147.393z"/>
  	</g>
  	<g>
  		<path fill="#FFFFFF" d="M82,96H67c-1.105,0-2-0.895-2-2V38c0-1.105,0.895-2,2-2h15c1.105,0,2,0.895,2,2v56
  			C84,95.105,83.105,96,82,96z"/>
  		<rect x="65" y="55" fill="#B2B5C2" width="19" height="1"/>
  		<rect x="67" y="59" fill="#B2B5C2" width="14" height="1"/>
  		<rect x="67" y="61" fill="#B2B5C2" width="10" height="1"/>
  		<rect x="67" y="63" fill="#B2B5C2" width="12" height="1"/>
  		<rect x="67" y="92" fill="#B2B5C2" width="14" height="1"/>
  		<rect x="67" y="90" fill="#B2B5C2" width="11" height="1"/>
  		<rect x="65" y="67" fill="#B2B5C2" width="19" height="1"/>
  		<rect x="65" y="75" fill="#B2B5C2" width="19" height="1"/>
  		<rect x="67" y="69" fill="#B2B5C2" width="3" height="5"/>
  		<rect x="71" y="69" fill="#B2B5C2" width="1" height="5"/>
  		<rect x="73" y="69" fill="#B2B5C2" width="2" height="5"/>
  		<rect x="76" y="69" fill="#B2B5C2" width="1" height="5"/>
  		<rect x="78" y="69" fill="#B2B5C2" width="2" height="5"/>
  		<rect x="81" y="69" fill="#B2B5C2" width="1" height="5"/>
  		<g>
  			<rect x="68" y="85" fill="#B2B5C2" width="1" height="3"/>
  			<rect x="67" y="85" fill="#B2B5C2" width="3" height="1"/>
  			<rect x="71" y="85" fill="#B2B5C2" width="1" height="3"/>
  			<rect x="72" y="85" fill="#B2B5C2" width="1" height="1"/>
  			<rect x="73" y="86" fill="#B2B5C2" width="1" height="1"/>
  			<path fill="#B2B5C2" d="M74,86h-1v-1l0,0C73.552,85,74,85.448,74,86L74,86z"/>
  			<path fill="#B2B5C2" d="M73,88v-1h1l0,0C74,87.552,73.552,88,73,88L73,88z"/>
  			<path fill="#B2B5C2" d="M75,86h1v1l0,0C75.448,87,75,86.552,75,86L75,86z"/>
  			<path fill="#B2B5C2" d="M77,87v-1h1l0,0C78,86.552,77.552,87,77,87L77,87z"/>
  			<rect x="72" y="87" fill="#B2B5C2" width="1" height="1"/>
  			<rect x="71" y="88" fill="#B2B5C2" width="1" height="1"/>
  			<rect x="68" y="88" fill="#B2B5C2" width="1" height="1"/>
  			<rect x="75" y="85" fill="#B2B5C2" width="1" height="1"/>
  			<rect x="77" y="85" fill="#B2B5C2" width="1" height="1"/>
  			<rect x="76" y="86" fill="#B2B5C2" width="1" height="3"/>
  		</g>
  		<path fill="#B2B5C2" d="M69,50h1v1h-1V50z M70,40h-1v1h1V40z M80,40h-1v1h1V40z M67,48h5v5h-5V48z M68,52h3v-3h-3V52z M82,38v5h-5
  			v-5H82z M81,39h-3v3h3V39z M72,43h-5v-5h5V43z M71,39h-3v3h3V39z M79,45v2h1v-2h1v2v1h-2v1h2v2v1h-1h-1h-2v-1h1h1h1v-1h-2v-3v-1
  			h-1v1v3h-3v-1h2v-1v-2h-1v-1h3v-1h-2v-1v-1v-1v-1v-1v-1h-3v1v3h1v-1v-2h1v1v1v1v1v1h-1v-1h-1v1v1h1v1h-2v-1v-1h-1v1v1h-2h-1v-1h2
  			v-1h-2h-1v3h1h1h5h1v1h-2v1v2h1h2v1h-3v1h3h1h3h2v-1v-1v-2v-1v-1v-2v-1h-3V45z"/>
  	</g>
  </g>
</svg>
