<svg xmlns="http://www.w3.org/2000/svg" viewBox="0 0 72 72">
  <g>
  	<circle fill="#666B85" cx="36" cy="36" r="36"/>
  	<g>
  		<g>
  			<path fill="#D6D8DE" d="M55,25v28H18V25H55 M56,24H17v30h39V24L56,24z"/>
  		</g>
  		<g>
  			<path fill="#D6D8DE" d="M47.586,17l7,7H18.414l7-7H47.586 M48,16H25l-8,8v1h39v-1L48,16L48,16z"/>
  		</g>
  		<rect x="36" y="16" fill="#D6D8DE" width="1" height="9"/>
  		<g>
  			<polyline fill="none" stroke="#D6D8DE" stroke-miterlimit="10" points="40,34 31,39 40,44 			"/>
  			<g>
  				<circle fill="#666B85" cx="40" cy="44" r="2.5"/>
  				<g>
  					<path fill="#D6D8DE" d="M40,42c1.103,0,2,0.897,2,2s-0.897,2-2,2s-2-0.897-2-2S38.897,42,40,42 M40,41c-1.657,0-3,1.343-3,3
  						c0,1.657,1.343,3,3,3s3-1.343,3-3C43,42.343,41.657,41,40,41L40,41z"/>
  				</g>
  			</g>
  			<g>
  				<circle fill="#666B85" cx="40" cy="34" r="2.5"/>
  				<g>
  					<path fill="#D6D8DE" d="M40,32c1.103,0,2,0.897,2,2s-0.897,2-2,2s-2-0.897-2-2S38.897,32,40,32 M40,31c-1.657,0-3,1.343-3,3
  						c0,1.657,1.343,3,3,3s3-1.343,3-3C43,32.343,41.657,31,40,31L40,31z"/>
  				</g>
  			</g>
  			<g>
  				<circle fill="#666B85" cx="31" cy="39" r="2.5"/>
  				<g>
  					<path fill="#D6D8DE" d="M31,37c1.103,0,2,0.897,2,2s-0.897,2-2,2c-1.103,0-2-0.897-2-2S29.897,37,31,37 M31,36
  						c-1.657,0-3,1.343-3,3c0,1.657,1.343,3,3,3c1.657,0,3-1.343,3-3C34,37.343,32.657,36,31,36L31,36z"/>
  				</g>
  			</g>
  		</g>
  	</g>
  </g>
</svg>
