<svg xmlns="http://www.w3.org/2000/svg" viewBox="0 0 72 72">
  <g>
  	<circle fill="#666B85" cx="36" cy="36" r="36"/>
  	<g>
  		<g>
  			<path fill="#D6D8DE" d="M30,17c7.168,0,13,5.832,13,13s-5.832,13-13,13s-13-5.832-13-13S22.832,17,30,17 M30,16
  				c-7.732,0-14,6.268-14,14s6.268,14,14,14s14-6.268,14-14S37.732,16,30,16L30,16z"/>
  		</g>
  		<g>
  			<g>
  				<path fill="#D6D8DE" d="M42.414,41L42.414,41L55,53.586L53.586,55L41,42.414L42.414,41C42.413,41,42.414,41,42.414,41
  					 M42.414,40c-0.256,0-0.512,0.098-0.707,0.293l-1.414,1.414c-0.391,0.391-0.391,1.024,0,1.414l12.586,12.586
  					C53.074,55.902,53.33,56,53.586,56s0.512-0.098,0.707-0.293l1.414-1.414c0.391-0.391,0.391-1.024,0-1.414L43.121,40.293
  					C42.926,40.097,42.67,40,42.414,40L42.414,40z"/>
  			</g>
  		</g>
  		<g>

  				<rect x="39.5" y="39.5" transform="matrix(0.7071 -0.7071 0.7071 0.7071 -16.7755 40.4999)" fill="#D6D8DE" width="2" height="2"/>
  		</g>
  	</g>
  </g>
</svg>
