<svg xmlns="http://www.w3.org/2000/svg" viewBox="0 0 72 72">
  <g>
  	<circle fill="#666B85" cx="36" cy="36" r="36"/>
  	<g>
  		<g>
  			<path fill="#D6D8DE" d="M34.17,19l22.54,22.54c0.385,0.385,0.385,1.012,0,1.398L42.938,56.711C42.751,56.897,42.503,57,42.239,57
  				c-0.264,0-0.512-0.103-0.699-0.289L19,34.17V19.988C19,19.443,19.443,19,19.988,19H34.17 M34.584,18H19.988
  				C18.89,18,18,18.89,18,19.988v14.596l22.833,22.833C41.221,57.806,41.73,58,42.239,58c0.509,0,1.018-0.194,1.406-0.582
  				l13.773-13.773c0.776-0.777,0.776-2.035,0-2.812L34.584,18L34.584,18z"/>
  		</g>
  		<g>
  			<path fill="#D6D8DE" d="M28,24.811c1.761,0,3.189,1.428,3.189,3.189S29.761,31.189,28,31.189S24.81,29.761,24.81,28
  				S26.238,24.811,28,24.811 M28,23.811c-2.31,0-4.189,1.879-4.189,4.189S25.69,32.189,28,32.189S32.189,30.31,32.189,28
  				S30.31,23.811,28,23.811L28,23.811z"/>
  		</g>
  	</g>
  </g>
</svg>
